<?xml version="1.0" standalone="no"?>
<!DOCTYPE svg PUBLIC "-//W3C//DTD SVG 20010904//EN"
 "http://www.w3.org/TR/2001/REC-SVG-20010904/DTD/svg10.dtd">
<svg version="1.0" xmlns="http://www.w3.org/2000/svg"
 width="94.000000pt" height="94.000000pt" viewBox="0 0 94.000000 94.000000"
 preserveAspectRatio="xMidYMid meet">
<metadata>
Created by potrace 1.14, written by Peter Selinger 2001-2017
</metadata>
<g transform="translate(0.000000,94.000000) scale(0.100000,-0.100000)"
fill="#000000" stroke="none">
<path d="M138 922 c-8 -9 -21 -44 -28 -77 -7 -33 -19 -86 -27 -119 -16 -66
-12 -86 15 -86 28 0 38 17 53 85 7 33 13 62 14 65 1 3 5 20 9 38 l8 33 91 -4
92 -3 -1 -65 c-1 -35 -4 -207 -7 -383 -4 -175 -9 -321 -12 -324 -3 -3 -26 -7
-50 -8 -54 -4 -65 -9 -65 -33 0 -24 20 -39 45 -35 36 7 262 10 330 4 68 -6 85
1 85 32 0 23 -32 34 -111 37 -12 1 -15 12 -13 59 3 90 17 622 18 670 l0 42 92
0 92 0 7 -46 c9 -61 31 -135 48 -158 14 -19 15 -18 35 2 18 18 20 26 11 49 -6
16 -19 68 -29 117 -10 48 -22 91 -25 95 -4 3 -111 6 -238 7 -217 1 -401 9
-417 19 -4 3 -14 -3 -22 -13z"/>
</g>
</svg>
