<svg>
<symbol id="location" width="11" height="16" viewBox="0 0 11 16" fill="none" xmlns="http://www.w3.org/2000/svg">
<path d="M5.42918 0C2.43567 0 0 2.32946 0 5.19165C0 6.55472 0.621302 8.36738 1.8466 10.5794C2.83064 12.3555 3.96907 13.9615 4.56119 14.7606C4.66124 14.8971 4.79207 15.0082 4.94305 15.0847C5.09403 15.1612 5.26092 15.2011 5.4302 15.2011C5.59947 15.2011 5.76637 15.1612 5.91735 15.0847C6.06833 15.0082 6.19915 14.8971 6.29921 14.7606C6.89031 13.9615 8.02976 12.3555 9.0138 10.5794C10.2371 8.36806 10.8584 6.5554 10.8584 5.19165C10.8584 2.32946 8.42269 0 5.42918 0ZM5.42918 7.60085C4.99966 7.60085 4.57979 7.47348 4.22266 7.23486C3.86553 6.99623 3.58719 6.65706 3.42282 6.26024C3.25845 5.86342 3.21544 5.42677 3.29924 5.00551C3.38303 4.58424 3.58986 4.19729 3.89358 3.89358C4.19729 3.58986 4.58425 3.38303 5.00551 3.29924C5.42677 3.21544 5.86342 3.25845 6.26024 3.42282C6.65706 3.58718 6.99623 3.86553 7.23486 4.22266C7.47349 4.57979 7.60085 4.99966 7.60085 5.42918C7.60022 6.00495 7.37122 6.55696 6.96409 6.96409C6.55696 7.37122 6.00495 7.60022 5.42918 7.60085Z" fill="#FC1200"/>
</symbol>

<symbol id="star" width="22" height="20" viewBox="0 0 22 20" fill="none" xmlns="http://www.w3.org/2000/svg">
<path d="M10.3829 0.463526C10.5325 0.00287056 11.1843 0.00287008 11.3339 0.463525L13.4403 6.9463C13.5072 7.15232 13.6992 7.2918 13.9158 7.2918H20.7322C21.2166 7.2918 21.418 7.9116 21.0261 8.1963L15.5115 12.2029C15.3363 12.3302 15.263 12.5559 15.3299 12.7619L17.4363 19.2447C17.586 19.7053 17.0587 20.0884 16.6669 19.8037L11.1523 15.7971C10.977 15.6698 10.7397 15.6698 10.5645 15.7971L5.04993 19.8037C4.65807 20.0884 4.13083 19.7053 4.2805 19.2447L6.38689 12.7619C6.45382 12.5559 6.38049 12.3302 6.20525 12.2029L0.69067 8.1963C0.298813 7.9116 0.500201 7.2918 0.984562 7.2918H7.80096C8.01757 7.2918 8.20955 7.15232 8.27649 6.9463L10.3829 0.463526Z" fill="#FFC700"/>
</symbol>

<symbol id="facebook" width="20" height="20" viewBox="0 0 20 20" fill="none" xmlns="http://www.w3.org/2000/svg">
<path d="M17.5 0H2.5C1.12083 0 0 1.12083 0 2.5V17.5C0 18.8783 1.12083 20 2.5 20H17.5C18.8783 20 20 18.8783 20 17.5V2.5C20 1.12083 18.8783 0 17.5 0Z" fill="#3B5999"/>
</symbol>

<symbol id="instagram" width="20" height="20" viewBox="0 0 20 20" fill="none" xmlns="http://www.w3.org/2000/svg">
<path d="M19.6576 3.57713C19.4756 1.87157 18.1285 0.524271 16.4227 0.342394C12.1451 -0.114131 7.85492 -0.114131 3.57742 0.342394C1.87164 0.524424 0.524445 1.87157 0.342407 3.57713C-0.114136 7.85445 -0.114136 12.1446 0.342407 16.4219C0.524445 18.1276 1.87164 19.4748 3.57727 19.6568C7.85477 20.1133 12.1451 20.1133 16.4227 19.6568C18.1285 19.4748 19.4756 18.1276 19.6576 16.4219C20.1141 12.1446 20.1141 7.85461 19.6576 3.57713Z" fill="url(#paint0_radial_0_167)"/>
<path d="M18.5699 4.30058C18.4085 2.78712 17.2131 1.59164 15.6994 1.43006C11.9037 1.0251 8.0966 1.0251 4.30083 1.43006C2.78731 1.59164 1.59178 2.78712 1.43019 4.30058C1.02522 8.0962 1.02522 11.9031 1.43019 15.6986C1.59178 17.2122 2.78731 18.4077 4.30083 18.5691C8.0966 18.9742 11.9037 18.9742 15.6993 18.5691C17.213 18.4077 18.4085 17.2122 18.5699 15.6986C18.9751 11.9031 18.9751 8.0962 18.5699 4.30058Z" fill="url(#paint1_linear_0_167)"/>
<path d="M0.299316 16.0065C0.313049 16.1447 0.32724 16.2829 0.342041 16.4212C0.524078 18.1267 1.87128 19.4739 3.57706 19.6559C7.85455 20.1124 12.1449 20.1124 16.4224 19.6559C18.1281 19.4739 19.4752 18.1267 19.6572 16.4212C19.672 16.2829 19.6862 16.1447 19.7001 16.0065H0.299316Z" fill="url(#paint2_linear_0_167)"/>
<path d="M19.6575 16.4227C19.9029 14.1244 20.0161 11.8224 19.9978 9.52071L15.4262 4.94936C14.8551 4.29738 14.0209 3.89044 13.0407 3.85519C11.0248 3.78257 9.00259 3.78623 6.98645 3.8555C5.31195 3.91318 4.14099 5.03862 3.8407 6.69276C3.78775 6.9848 3.75601 7.28066 3.71436 7.57483V12.4242C3.7374 12.5813 3.77127 12.7377 3.7818 12.8958C3.84894 13.9019 4.26245 14.7637 4.92453 15.3467L9.57663 19.9985C11.8597 20.0145 14.1428 19.901 16.4226 19.6576C18.1284 19.4756 19.4755 18.1285 19.6575 16.4227Z" fill="url(#paint3_linear_0_167)"/>
<path d="M19.6574 16.4211C19.4756 18.1265 18.1281 19.4739 16.4226 19.6558C14.1431 19.899 11.8594 20.0127 9.57672 19.9967L4.93164 15.3518C5.47012 15.8231 6.17203 16.1101 6.98654 16.1408C9.00223 16.2164 11.0249 16.2145 13.0406 16.1418C14.8637 16.0759 16.183 14.7266 16.2399 12.9036C16.3007 10.9679 16.3007 9.02724 16.2399 7.09159C16.214 6.25056 15.9187 5.51054 15.4292 4.95056L19.9979 9.51901C20.0159 11.8204 19.9026 14.1227 19.6574 16.4211Z" fill="url(#paint4_linear_0_167)"/>
<path d="M12.3602 7.83458C11.7746 7.19694 10.9343 6.79688 10.0003 6.79688C8.2312 6.79688 6.79688 8.23114 6.79688 10.0002C6.79688 10.9341 7.19696 11.7744 7.83463 12.36L15.2463 19.7714C15.6386 19.7372 16.0309 19.6992 16.4229 19.6574C18.1287 19.4754 19.4759 18.1282 19.6579 16.4225C19.6997 16.0305 19.7377 15.6382 19.7719 15.2459L12.3602 7.83458Z" fill="url(#paint5_linear_0_167)"/>
<path d="M19.9613 12.1538L13.9964 6.18926C13.8572 6.00662 13.6379 5.88806 13.3906 5.88806C12.9698 5.88806 12.6284 6.22923 12.6284 6.65021C12.6284 6.89754 12.747 7.1168 12.9296 7.25596L19.8547 14.1809C19.9017 13.5054 19.9372 12.8296 19.9613 12.1538Z" fill="url(#paint6_linear_0_167)"/>
<path d="M3.71436 7.57483C3.75601 7.28066 3.78775 6.9848 3.8407 6.69276C4.14084 5.03862 5.31195 3.91318 6.98645 3.8555C9.00259 3.78623 11.0248 3.78257 13.0407 3.85519C14.8632 3.9208 16.1831 5.27024 16.24 7.09329C16.3006 9.02909 16.3006 10.9696 16.24 12.9054C16.1831 14.7285 14.8636 16.0778 13.0408 16.1435C11.025 16.2163 9.00229 16.2181 6.9866 16.1425C5.16379 16.0739 3.90372 14.7215 3.7818 12.8957C3.77127 12.7377 3.7374 12.5812 3.71436 12.424C3.71436 10.8076 3.71436 9.19113 3.71436 7.57483ZM10.0016 15.0631C10.9241 15.0631 11.8476 15.0907 12.7689 15.0567C14.2135 15.0031 15.102 14.141 15.1357 12.6979C15.1775 10.8997 15.1775 9.09913 15.1357 7.3008C15.102 5.85798 14.2129 4.97576 12.7689 4.94509C10.9362 4.90633 9.10147 4.90664 7.26874 4.94509C5.83578 4.97515 4.94467 5.83952 4.90576 7.26647C4.85632 9.08738 4.85632 10.9115 4.90576 12.7324C4.94467 14.1592 5.83578 15.0036 7.26889 15.0567C8.17862 15.0906 9.09064 15.0631 10.0016 15.0631Z" fill="url(#paint7_linear_0_167)"/>
<path d="M3.71436 7.57483C3.75601 7.28066 3.78775 6.9848 3.8407 6.69276C4.14084 5.03862 5.31195 3.91318 6.98645 3.8555C9.00259 3.78623 11.0248 3.78257 13.0407 3.85519C14.8632 3.9208 16.1831 5.27024 16.24 7.09329C16.3006 9.02909 16.3006 10.9696 16.24 12.9054C16.1831 14.7285 14.8636 16.0778 13.0408 16.1435C11.025 16.2163 9.00229 16.2181 6.9866 16.1425C5.16379 16.0739 3.90372 14.7215 3.7818 12.8957C3.77127 12.7377 3.7374 12.5812 3.71436 12.424C3.71436 10.8076 3.71436 9.19113 3.71436 7.57483ZM10.0016 15.0631C10.9241 15.0631 11.8476 15.0907 12.7689 15.0567C14.2135 15.0031 15.102 14.141 15.1357 12.6979C15.1775 10.8997 15.1775 9.09913 15.1357 7.3008C15.102 5.85798 14.2129 4.97576 12.7689 4.94509C10.9362 4.90633 9.10147 4.90664 7.26874 4.94509C5.83578 4.97515 4.94467 5.83952 4.90576 7.26647C4.85632 9.08738 4.85632 10.9115 4.90576 12.7324C4.94467 14.1592 5.83578 15.0036 7.26889 15.0567C8.17862 15.0906 9.09064 15.0631 10.0016 15.0631Z" fill="white"/>
<path d="M10.0003 6.79626C8.2312 6.79626 6.79688 8.23038 6.79688 9.99941C6.79688 11.7686 8.2312 13.2027 10.0003 13.2027C11.7696 13.2027 13.2037 11.7686 13.2037 9.99941C13.2037 8.23038 11.7696 6.79626 10.0003 6.79626ZM10.0003 12.0999C8.84018 12.0999 7.89978 11.1595 7.89978 9.99941C7.89978 8.83933 8.84018 7.89897 10.0003 7.89897C11.1604 7.89897 12.1008 8.83933 12.1008 9.99941C12.1008 11.1595 11.1604 12.0999 10.0003 12.0999Z" fill="white"/>
<path d="M14.1526 6.6496C14.1526 7.07042 13.8114 7.41159 13.3906 7.41159C12.9698 7.41159 12.6284 7.07042 12.6284 6.6496C12.6284 6.22862 12.9698 5.88745 13.3906 5.88745C13.8114 5.88745 14.1526 6.22862 14.1526 6.6496Z" fill="white"/>
<defs>
<radialGradient id="paint0_radial_0_167" cx="0" cy="0" r="1" gradientUnits="userSpaceOnUse" gradientTransform="translate(4.09989 17.4777) scale(22.0565 22.0556)">
<stop stop-color="#FAE100"/>
<stop offset="0.0544" stop-color="#FADC04"/>
<stop offset="0.1167" stop-color="#FBCE0E"/>
<stop offset="0.1829" stop-color="#FCB720"/>
<stop offset="0.2514" stop-color="#FE9838"/>
<stop offset="0.3054" stop-color="#FF7950"/>
<stop offset="0.4922" stop-color="#FF1C74"/>
<stop offset="1" stop-color="#6C1CD1"/>
</radialGradient>
<linearGradient id="paint1_linear_0_167" x1="7.67095" y1="8.68954" x2="-26.2108" y2="-10.3697" gradientUnits="userSpaceOnUse">
<stop stop-color="#A1B5D8" stop-opacity="0"/>
<stop offset="0.3094" stop-color="#90A2BD" stop-opacity="0.309804"/>
<stop offset="0.7554" stop-color="#7C8B9C" stop-opacity="0.756863"/>
<stop offset="1" stop-color="#748290"/>
</linearGradient>
<linearGradient id="paint2_linear_0_167" x1="9.99965" y1="17.6533" x2="9.99965" y2="20.7707" gradientUnits="userSpaceOnUse">
<stop stop-color="#FAE100" stop-opacity="0"/>
<stop offset="0.3068" stop-color="#FCA800" stop-opacity="0.305882"/>
<stop offset="0.6275" stop-color="#FE7300" stop-opacity="0.627451"/>
<stop offset="0.8685" stop-color="#FF5200" stop-opacity="0.866667"/>
<stop offset="1" stop-color="#FF4500"/>
</linearGradient>
<linearGradient id="paint3_linear_0_167" x1="8.86211" y1="8.83438" x2="3.91263" y2="3.8847" gradientUnits="userSpaceOnUse">
<stop stop-color="#833AB4" stop-opacity="0"/>
<stop offset="1" stop-color="#833AB4"/>
</linearGradient>
<linearGradient id="paint4_linear_0_167" x1="13.7069" y1="18.2907" x2="11.2366" y2="6.64467" gradientUnits="userSpaceOnUse">
<stop stop-color="#833AB4" stop-opacity="0"/>
<stop offset="1" stop-color="#833AB4"/>
</linearGradient>
<linearGradient id="paint5_linear_0_167" x1="14.6474" y1="14.6471" x2="4.72496" y2="4.72424" gradientUnits="userSpaceOnUse">
<stop stop-color="#833AB4" stop-opacity="0"/>
<stop offset="1" stop-color="#833AB4"/>
</linearGradient>
<linearGradient id="paint6_linear_0_167" x1="15.3832" y1="8.64267" x2="12.102" y2="5.36139" gradientUnits="userSpaceOnUse">
<stop stop-color="#833AB4" stop-opacity="0"/>
<stop offset="1" stop-color="#833AB4"/>
</linearGradient>
<linearGradient id="paint7_linear_0_167" x1="13.9709" y1="6.05721" x2="5.8808" y2="14.1477" gradientUnits="userSpaceOnUse">
<stop stop-color="#833AB4"/>
<stop offset="0.0922" stop-color="#9C3495"/>
<stop offset="0.2927" stop-color="#DC2546"/>
<stop offset="0.392" stop-color="#FD1D1D"/>
<stop offset="0.5589" stop-color="#FC6831"/>
<stop offset="0.6887" stop-color="#FC9B40"/>
<stop offset="0.7521" stop-color="#FCAF45"/>
<stop offset="0.7806" stop-color="#FDB750"/>
<stop offset="0.8656" stop-color="#FECB6A"/>
<stop offset="0.9415" stop-color="#FFD87A"/>
<stop offset="1" stop-color="#FFDC80"/>
</linearGradient>
</defs>
</symbol>

<symbol id="twitter" width="20" height="20" viewBox="0 0 20 20" fill="none" xmlns="http://www.w3.org/2000/svg">
<path d="M16.4227 19.6576C12.1452 20.1141 7.85477 20.1141 3.57727 19.6576C1.87164 19.4756 0.524445 18.1284 0.342407 16.4226C-0.114136 12.1451 -0.114136 7.85477 0.342407 3.57727C0.524445 1.87164 1.87164 0.524445 3.57727 0.342407C7.85477 -0.114136 12.1451 -0.114136 16.4226 0.342407C18.1284 0.524445 19.4756 1.87164 19.6576 3.57727C20.1141 7.85477 20.1141 12.1451 19.6576 16.4226C19.4756 18.1284 18.1285 19.4756 16.4227 19.6576Z" fill="url(#paint0_linear_0_184)"/>
<defs>
<linearGradient id="paint0_linear_0_184" x1="6.64039" y1="2.81196" x2="11.699" y2="13.635" gradientUnits="userSpaceOnUse">
<stop stop-color="#00C3FF"/>
<stop offset="1" stop-color="#00B0ED"/>
</linearGradient>
</defs>
</symbol>

<symbol id="google" width="20" height="20" viewBox="0 0 20 20" fill="none" xmlns="http://www.w3.org/2000/svg">
<path d="M10 20C15.5228 20 20 15.5228 20 10C20 4.47715 15.5228 0 10 0C4.47715 0 0 4.47715 0 10C0 15.5228 4.47715 20 10 20Z" fill="#273B7A"/>
<path d="M19.7748 12.1156L13.6607 6.00134L8.5633 6.40822L5.95947 8.78517L6.29361 13.9558L12.0828 19.7818C15.9229 18.9681 18.9485 15.9509 19.7748 12.1156Z" fill="#121149"/>
<path d="M10.2183 9.08051V10.9967H13.2151C12.7901 12.3684 11.5117 13.3648 10.0003 13.3648C8.14182 13.3648 6.63514 11.8582 6.63514 9.99961C6.63506 8.14117 8.14166 6.63449 10.0002 6.63449C10.8687 6.63449 11.6578 6.96641 12.2549 7.5066L13.661 6.00121C12.6964 5.11766 11.4114 4.57812 10.0002 4.57812C7.00596 4.57812 4.57861 7.00539 4.57861 9.99969C4.57861 12.994 7.00596 15.4212 10.0002 15.4212C12.9945 15.4212 15.4218 12.9939 15.4218 9.99969C15.4218 9.68602 15.3928 9.37941 15.3413 9.08051H10.2183Z" fill="#4285F4"/>
<path d="M10 6.63457C10.8686 6.63457 11.6577 6.96648 12.2547 7.50668L13.6608 6.00129C12.6963 5.11766 11.4113 4.57812 10 4.57812C7.92355 4.57812 6.12066 5.74594 5.20996 7.46008L6.86449 8.78512C7.35207 7.52769 8.57035 6.63457 10 6.63457Z" fill="#EA4335"/>
<path d="M6.6351 10.0005C6.6351 9.57168 6.71838 9.16313 6.86467 8.78598L5.21014 7.46094C4.8076 8.21863 4.57861 9.0827 4.57861 10.0005C4.57861 10.9226 4.80951 11.7906 5.21553 12.5508L6.86025 11.203C6.71697 10.829 6.6351 10.4248 6.6351 10.0005Z" fill="#FBBC05"/>
<path d="M11.8714 12.7955C11.3362 13.1546 10.6936 13.3659 10.0006 13.3659C8.56629 13.3659 7.34492 12.467 6.86055 11.2031L5.21582 12.5509C6.1284 14.2593 7.92836 15.4223 10.0005 15.4223C11.3462 15.4223 12.5764 14.9309 13.5242 14.1192L11.8714 12.7955Z" fill="#34A853"/>
<path d="M15.4217 9.99987C15.4217 9.6862 15.3928 9.37959 15.3412 9.08069H10.2183V10.9969H13.215C12.9849 11.7397 12.5031 12.3706 11.871 12.7947L13.5238 14.1184C14.685 13.124 15.4217 11.6484 15.4217 9.99987Z" fill="#4285F4"/>
</symbol>
</svg>